<?xml version="1.0" encoding="UTF-8" standalone="no"?><!-- Generator: Gravit.io -->
<svg width="76px" height="76px" viewBox="0 0 76 76" version="1.1" xmlns="http://www.w3.org/2000/svg" xmlns:xlink="http://www.w3.org/1999/xlink">
    <defs>
        <clipPath id="_clipPath_wr0ZWAMPFDQ00HGHRueW6LY05NjTFmAB">
            <rect width="76" height="76"/>
        </clipPath>
    </defs>
    <g clip-path="url(#_clipPath_wr0ZWAMPFDQ00HGHRueW6LY05NjTFmAB)">
        <clipPath id="_clipPath_Rsda0BOoLMV8WzRxdBBe4MzX5tPvopfR">
            <rect x="0" y="0" width="76" height="76" transform="matrix(1,0,0,1,0,0)" fill="rgb(255,255,255)"/>
        </clipPath>
        <g clip-path="url(#_clipPath_Rsda0BOoLMV8WzRxdBBe4MzX5tPvopfR)">
            <g>
                <g>
                    <g>
                        <g>
                            <g>
                                <path d=" M 5 0 L 71 0 C 73.76 0 76 2.24 76 5 L 76 71 C 76 73.76 73.76 76 71 76 L 5 76 C 2.24 76 0 73.76 0 71 L 0 5 C 0 2.24 2.24 0 5 0 Z " fill="rgb(47,47,47)"/>
                                <path d=" M 11.4 11.4 L 64.6 11.4 L 64.6 64.6 L 11.4 64.6 L 11.4 11.4 L 11.4 11.4 L 11.4 11.4 Z " fill-rule="evenodd" fill="rgb(255,255,255)"/>
                                <path d=" M 34.029 11.177 C 27.776 12.164 23.049 15.324 19.376 20.972 C 18.323 22.591 17.572 24.171 17.572 24.737 C 17.572 25.08 17.506 25.225 17.335 25.277 C 17.032 25.356 16.519 26.66 16.756 26.739 C 16.848 26.765 16.914 26.962 16.914 27.173 C 16.914 27.489 16.861 27.555 16.611 27.555 C 16.322 27.555 16.269 27.673 15.953 28.964 C 14.886 33.282 14.702 38.733 15.466 43.143 C 16.414 48.66 18.56 53.044 22.167 56.822 C 25.248 60.035 28.855 62.062 33.161 62.997 C 34.332 63.261 34.885 63.287 37.782 63.3 C 40.454 63.3 41.297 63.261 42.258 63.063 C 46.379 62.22 49.763 60.404 52.738 57.441 C 58.399 51.819 60.967 44.526 60.479 35.481 C 60.071 27.621 57.372 21.17 52.567 16.562 C 49.749 13.836 46.655 12.204 42.758 11.348 C 41.034 10.979 35.952 10.874 34.029 11.177 Z  M 41.113 15.693 C 44.878 16.799 48.406 19.866 50.355 23.724 C 51.356 25.712 52.159 28.45 52.62 31.413 C 52.87 33.019 52.909 33.822 52.909 37.034 C 52.909 41.3 52.699 43.156 51.882 46.132 C 50.052 52.781 45.8 57.296 40.415 58.297 C 38.782 58.613 35.82 58.508 34.438 58.113 C 30.62 56.994 27.196 53.913 25.077 49.687 C 23.523 46.566 22.575 41.985 22.575 37.6 L 22.575 35.718 L 21.193 35.718 L 19.81 35.718 L 19.81 33.48 L 19.81 31.255 L 21.351 31.215 L 22.891 31.176 L 23.062 30.122 C 23.444 27.845 24.155 25.593 25.116 23.671 C 27.196 19.471 30.87 16.443 35.03 15.521 C 36.386 15.219 39.822 15.311 41.113 15.693 Z  M 22.049 48.818 L 22.049 51.385 L 20.337 51.385 L 18.626 51.385 L 18.626 48.818 L 18.626 46.25 L 20.337 46.25 L 22.049 46.25 L 22.049 48.818 L 22.049 48.818 Z " fill="rgb(114,113,117)"/>
                                <path d=" M 16.141 23.757 L 16.141 24.513 L 14.892 24.513 L 13.643 24.513 L 13.593 23.908 C 13.509 22.946 13.559 22.918 14.925 22.96 L 16.141 23.001 L 16.141 23.757 L 16.141 23.757 Z  M 6.066 24.925 L 6.066 26.78 L 8.48 26.78 L 10.895 26.78 L 10.895 31.453 L 10.895 36.125 L 7.981 36.125 L 5.067 36.125 L 5.067 32.277 L 5.067 28.443 L 3.451 28.402 L 1.819 28.361 L 1.769 25.708 L 1.736 23.07 L 3.901 23.07 L 6.066 23.07 L 6.066 24.925 L 6.066 24.925 Z  M 39.171 26.395 L 39.121 27.399 L 37.456 27.399 L 35.791 27.399 L 35.741 26.395 L 35.691 25.406 L 37.456 25.406 L 39.221 25.406 L 39.171 26.395 L 39.171 26.395 Z  M 40.67 32.923 L 40.703 35.301 L 44.167 35.328 L 47.614 35.369 L 47.614 36.812 L 47.614 38.255 L 44.167 38.297 L 40.703 38.324 L 40.67 40.702 L 40.62 43.066 L 38.788 43.066 L 36.957 43.066 L 36.907 36.95 C 36.89 33.583 36.907 30.752 36.957 30.656 C 37.006 30.532 37.489 30.491 38.822 30.518 L 40.62 30.559 L 40.67 32.923 L 40.67 32.923 Z  M 26.132 33.102 L 26.132 36.125 L 22.602 36.125 L 19.055 36.125 L 19.055 33.102 L 19.055 30.766 L 22.602 30.793 L 26.132 30.834 L 26.132 33.102 L 26.132 33.102 Z  M 4.567 41.76 L 4.567 44.096 L 1.037 44.069 Q -1.644 39.424 1.07 39.424 L 4.567 39.424 L 4.567 41.76 Z  M 21.886 49.112 L 21.886 51.792 L 19.721 51.792 L 17.556 51.792 L 17.556 49.112 L 17.556 45 L 19.055 45 L 21.886 45 L 21.886 49.112 L 21.886 49.112 Z  M 9.979 51.105 L 9.979 51.861 L 8.73 51.861 L 7.481 51.861 L 7.431 51.256 C 7.348 50.294 7.398 50.267 8.763 50.308 L 9.979 50.349 L 9.979 51.105 L 9.979 51.105 Z  M 39.837 52.369 L 39.887 53.441 L 42.452 53.441 L 45.033 53.441 L 45.033 54.541 L 45.033 55.64 L 39.121 55.64 L 33.21 55.64 L 33.21 53.441 L 33.21 51.243 L 36.507 51.27 L 39.787 51.311 L 39.837 52.369 L 39.837 52.369 Z " fill="rgb(255,153,0)"/>
                            </g>
                        </g>
                    </g>
                </g>
            </g>
        </g>
    </g>
</svg>