<?xml version="1.0" encoding="UTF-8"?>
<!DOCTYPE svg PUBLIC "-//W3C//DTD SVG 1.1//EN" "http://www.w3.org/Graphics/SVG/1.1/DTD/svg11.dtd">
<svg xmlns="http://www.w3.org/2000/svg" version="1.1" width="380px" height="380px" style="shape-rendering:geometricPrecision; text-rendering:geometricPrecision; image-rendering:optimizeQuality; fill-rule:evenodd; clip-rule:evenodd" xmlns:xlink="http://www.w3.org/1999/xlink">
<g><path style="opacity:0.888" fill="#000000" d="M 170.5,-0.5 C 182.833,-0.5 195.167,-0.5 207.5,-0.5C 280.261,9.29108 332.427,47.2911 364,113.5C 372.687,134.458 377.854,156.125 379.5,178.5C 379.5,185.5 379.5,192.5 379.5,199.5C 371.698,279.79 330.698,335.623 256.5,367C 185.001,390.698 120.334,378.698 62.5,331C 25.3433,296.52 4.34332,254.02 -0.5,203.5C -0.5,193.833 -0.5,184.167 -0.5,174.5C 8.13926,100.705 45.8059,47.5381 112.5,15C 131.288,7.30504 150.621,2.13837 170.5,-0.5 Z"/></g>
<g><path style="opacity:1" fill="#383836" d="M 174.5,3.5 C 251.729,1.01488 310.562,32.3482 351,97.5C 383.662,158.512 383.662,219.512 351,280.5C 310.391,346.228 251.225,377.394 173.5,374C 104.395,365.73 53.8954,330.896 22,269.5C -8.86377,197.226 -0.197103,130.226 48,68.5C 81.7819,30.5257 123.949,8.859 174.5,3.5 Z"/></g>
<g><path style="opacity:1" fill="#d5920f" d="M 171.5,27.5 C 179.316,26.5076 187.316,26.1743 195.5,26.5C 195.5,28.8333 195.5,31.1667 195.5,33.5C 190.637,33.1805 185.97,33.5139 181.5,34.5C 179.167,34.5 176.833,34.5 174.5,34.5C 174.5,32.1667 174.5,29.8333 174.5,27.5C 173.5,27.5 172.5,27.5 171.5,27.5 Z"/></g>
<g><path style="opacity:1" fill="#c16d1c" d="M 195.5,26.5 C 202.599,26.3413 209.599,27.008 216.5,28.5C 216.806,31.3854 216.473,34.0521 215.5,36.5C 204.244,34.8219 192.911,34.1553 181.5,34.5C 185.97,33.5139 190.637,33.1805 195.5,33.5C 195.5,31.1667 195.5,28.8333 195.5,26.5 Z"/></g>
<g><path style="opacity:1" fill="#eabe0a" d="M 171.5,27.5 C 172.5,27.5 173.5,27.5 174.5,27.5C 174.5,29.8333 174.5,32.1667 174.5,34.5C 167.833,35.5 161.167,36.5 154.5,37.5C 154.5,35.1667 154.5,32.8333 154.5,30.5C 153.5,30.5 152.5,30.5 151.5,30.5C 157.911,28.6557 164.578,27.6557 171.5,27.5 Z"/></g>
<g><path style="opacity:1" fill="#af421d" d="M 216.5,28.5 C 225.129,30.0715 233.462,32.4048 241.5,35.5C 241.083,38.1589 240.083,40.4922 238.5,42.5C 230.795,40.2318 223.128,38.2318 215.5,36.5C 216.473,34.0521 216.806,31.3854 216.5,28.5 Z"/></g>
<g><path style="opacity:1" fill="#d50f51" d="M 174.5,34.5 C 176.833,34.5 179.167,34.5 181.5,34.5C 192.911,34.1553 204.244,34.8219 215.5,36.5C 223.128,38.2318 230.795,40.2318 238.5,42.5C 241.792,43.3254 244.792,44.8254 247.5,47C 245.199,51.1072 242.532,54.9405 239.5,58.5C 234.415,63.9221 228.749,68.5887 222.5,72.5C 215.916,75.141 209.249,77.141 202.5,78.5C 194.44,78.4911 186.44,77.8244 178.5,76.5C 172.456,74.3103 166.79,71.3103 161.5,67.5C 152.792,60.9625 146.125,52.7958 141.5,43C 141.905,42.0546 142.572,41.3879 143.5,41C 147.333,39.9662 150.999,38.7995 154.5,37.5C 161.167,36.5 167.833,35.5 174.5,34.5 Z"/></g>
<g><path style="opacity:1" fill="#a4251c" d="M 241.5,35.5 C 246.014,36.4208 250.347,37.9208 254.5,40C 256.081,45.0218 255.581,49.8552 253,54.5C 249.71,59.9567 245.543,64.6233 240.5,68.5C 240.813,64.9581 240.479,61.6248 239.5,58.5C 242.532,54.9405 245.199,51.1072 247.5,47C 244.792,44.8254 241.792,43.3254 238.5,42.5C 240.083,40.4922 241.083,38.1589 241.5,35.5 Z"/></g>
<g><path style="opacity:1" fill="#f5da0b" d="M 151.5,30.5 C 152.5,30.5 153.5,30.5 154.5,30.5C 154.5,32.8333 154.5,35.1667 154.5,37.5C 150.999,38.7995 147.333,39.9662 143.5,41C 142.572,41.3879 141.905,42.0546 141.5,43C 146.125,52.7958 152.792,60.9625 161.5,67.5C 161.5,70.5 161.5,73.5 161.5,76.5C 152.114,72.041 144.614,65.3744 139,56.5C 134.259,50.3014 132.425,43.468 133.5,36C 139.122,32.9279 145.122,31.0946 151.5,30.5 Z"/></g>
<g><path style="opacity:1" fill="#e8b90e" d="M 92.5,57.5 C 95.1431,56.0209 97.6431,56.3542 100,58.5C 107.3,73.4462 116.8,86.7795 128.5,98.5C 128.806,101.385 128.473,104.052 127.5,106.5C 114.02,96.208 103.353,83.5413 95.5,68.5C 95.0431,67.7025 94.3764,67.3691 93.5,67.5C 93.8128,63.9581 93.4794,60.6248 92.5,57.5 Z"/></g>
<g><path style="opacity:1" fill="#ae421c" d="M 239.5,58.5 C 240.479,61.6248 240.813,64.9581 240.5,68.5C 235.411,73.2451 229.745,77.2451 223.5,80.5C 223.806,77.6146 223.473,74.9479 222.5,72.5C 228.749,68.5887 234.415,63.9221 239.5,58.5 Z"/></g>
<g><path style="opacity:1" fill="#d51051" d="M 93.5,67.5 C 94.3764,67.3691 95.0431,67.7025 95.5,68.5C 103.353,83.5413 114.02,96.208 127.5,106.5C 141.018,117.255 156.351,124.255 173.5,127.5C 191.175,130.586 208.842,129.919 226.5,125.5C 240.152,121.509 252.485,115.175 263.5,106.5C 275.085,97.7491 284.752,87.2491 292.5,75C 293.167,74.3333 293.833,74.3333 294.5,75C 295.163,76.5185 296.163,77.6851 297.5,78.5C 305.289,88.1271 313.289,97.6271 321.5,107C 310.479,108.632 299.812,111.132 289.5,114.5C 277.241,117.473 265.574,121.806 254.5,127.5C 244.523,131.486 235.189,136.486 226.5,142.5C 216.913,148.427 207.913,155.094 199.5,162.5C 197.771,163.117 196.271,164.117 195,165.5C 187.056,160.112 178.889,155.112 170.5,150.5C 160.067,145.283 149.401,140.617 138.5,136.5C 126.38,132.387 114.047,129.053 101.5,126.5C 89.9246,124.442 78.2579,123.109 66.5,122.5C 64.5,122.5 62.5,122.5 60.5,122.5C 57.2033,122.11 54.2033,121.11 51.5,119.5C 53.7136,112.742 56.7136,106.408 60.5,100.5C 69.8061,87.8605 80.8061,76.8605 93.5,67.5 Z"/></g>
<g><path style="opacity:1" fill="#ae431d" d="M 299.5,70.5 C 298.833,73.1667 298.167,75.8333 297.5,78.5C 296.163,77.6851 295.163,76.5185 294.5,75C 293.833,74.3333 293.167,74.3333 292.5,75C 284.752,87.2491 275.085,97.7491 263.5,106.5C 263.5,103.5 263.5,100.5 263.5,97.5C 272.435,87.7293 280.435,77.2293 287.5,66C 292.78,63.7979 296.78,65.2979 299.5,70.5 Z"/></g>
<g><path style="opacity:1" fill="#e1ab0f" d="M 161.5,67.5 C 166.79,71.3103 172.456,74.3103 178.5,76.5C 179.01,79.3878 178.344,81.7211 176.5,83.5C 170.797,82.4797 165.797,80.1464 161.5,76.5C 161.5,73.5 161.5,70.5 161.5,67.5 Z"/></g>
<g><path style="opacity:1" fill="#bd621c" d="M 222.5,72.5 C 223.473,74.9479 223.806,77.6146 223.5,80.5C 216.053,83.2787 208.386,85.2787 200.5,86.5C 202.202,84.1998 202.868,81.5331 202.5,78.5C 209.249,77.141 215.916,75.141 222.5,72.5 Z"/></g>
<g><path style="opacity:1" fill="#cf8913" d="M 178.5,76.5 C 186.44,77.8244 194.44,78.4911 202.5,78.5C 202.868,81.5331 202.202,84.1998 200.5,86.5C 192.183,86.9181 184.183,85.9181 176.5,83.5C 178.344,81.7211 179.01,79.3878 178.5,76.5 Z"/></g>
<g><path style="opacity:1" fill="#f2d20b" d="M 92.5,57.5 C 93.4794,60.6248 93.8128,63.9581 93.5,67.5C 80.8061,76.8605 69.8061,87.8605 60.5,100.5C 60.8168,96.2984 60.4834,92.2984 59.5,88.5C 68.9333,76.397 79.9333,66.0637 92.5,57.5 Z"/></g>
<g><path style="opacity:1" fill="#a7301d" d="M 299.5,70.5 C 311.354,83.1918 322.021,96.8585 331.5,111.5C 317.343,114.206 303.343,117.539 289.5,121.5C 289.5,119.167 289.5,116.833 289.5,114.5C 299.812,111.132 310.479,108.632 321.5,107C 313.289,97.6271 305.289,88.1271 297.5,78.5C 298.167,75.8333 298.833,73.1667 299.5,70.5 Z"/></g>
<g><path style="opacity:1" fill="#fbe604" d="M 59.5,88.5 C 60.4834,92.2984 60.8168,96.2984 60.5,100.5C 56.7136,106.408 53.7136,112.742 51.5,119.5C 50.596,120.209 50.2627,121.209 50.5,122.5C 53.8333,122.5 57.1667,122.5 60.5,122.5C 62.5,122.5 64.5,122.5 66.5,122.5C 66.5,125.167 66.5,127.833 66.5,130.5C 60.4908,130.334 54.4908,130.501 48.5,131C 46.9194,131.707 45.4194,132.54 44,133.5C 40.3197,144.372 37.1531,155.372 34.5,166.5C 45.1667,166.5 55.8333,166.5 66.5,166.5C 66.5,169.167 66.5,171.833 66.5,174.5C 64.8333,174.5 63.1667,174.5 61.5,174.5C 50.5105,175.376 39.5105,175.543 28.5,175C 26.9716,173.352 26.3049,171.352 26.5,169C 30.0029,138.967 41.0029,112.134 59.5,88.5 Z"/></g>
<g><path style="opacity:1" fill="#ba5f1d" d="M 263.5,97.5 C 263.5,100.5 263.5,103.5 263.5,106.5C 252.485,115.175 240.152,121.509 226.5,125.5C 226.802,122.941 226.468,120.607 225.5,118.5C 239.34,113.581 252.006,106.581 263.5,97.5 Z"/></g>
<g><path style="opacity:1" fill="#d89812" d="M 128.5,98.5 C 141.793,109.313 156.793,116.646 173.5,120.5C 173.5,122.833 173.5,125.167 173.5,127.5C 156.351,124.255 141.018,117.255 127.5,106.5C 128.473,104.052 128.806,101.385 128.5,98.5 Z"/></g>
<g><path style="opacity:1" fill="#c7714e" d="M 51.5,119.5 C 54.2033,121.11 57.2033,122.11 60.5,122.5C 57.1667,122.5 53.8333,122.5 50.5,122.5C 50.2627,121.209 50.596,120.209 51.5,119.5 Z"/></g>
<g><path style="opacity:1" fill="#c87a17" d="M 225.5,118.5 C 226.468,120.607 226.802,122.941 226.5,125.5C 208.842,129.919 191.175,130.586 173.5,127.5C 173.5,125.167 173.5,122.833 173.5,120.5C 190.935,122.211 208.268,121.544 225.5,118.5 Z"/></g>
<g><path style="opacity:1" fill="#b44d1d" d="M 289.5,114.5 C 289.5,116.833 289.5,119.167 289.5,121.5C 277.679,125.774 266.012,130.441 254.5,135.5C 254.5,132.833 254.5,130.167 254.5,127.5C 265.574,121.806 277.241,117.473 289.5,114.5 Z"/></g>
<g><path style="opacity:1" fill="#f0c70f" d="M 66.5,122.5 C 78.2579,123.109 89.9246,124.442 101.5,126.5C 101.5,129.167 101.5,131.833 101.5,134.5C 89.859,132.836 78.1923,131.503 66.5,130.5C 66.5,127.833 66.5,125.167 66.5,122.5 Z"/></g>
<g><path style="opacity:1" fill="#d50f51" d="M 66.5,130.5 C 78.1923,131.503 89.859,132.836 101.5,134.5C 113.262,137.024 124.929,140.024 136.5,143.5C 147.922,148.093 159.256,153.093 170.5,158.5C 180.492,165.164 190.492,171.83 200.5,178.5C 209.107,185.77 217.441,193.437 225.5,201.5C 231.833,208.833 238.167,216.167 244.5,223.5C 255.261,237.34 264.261,252.34 271.5,268.5C 277.021,280.729 281.354,293.396 284.5,306.5C 284.257,310.151 282.59,312.984 279.5,315C 273.434,318.024 267.768,321.524 262.5,325.5C 259.447,326.777 256.614,328.444 254,330.5C 248.953,306.085 239.786,283.418 226.5,262.5C 217.079,245.981 205.079,231.648 190.5,219.5C 179.655,208.993 167.655,199.993 154.5,192.5C 140.551,184.739 125.884,178.739 110.5,174.5C 96.1381,170.328 81.4714,167.661 66.5,166.5C 55.8333,166.5 45.1667,166.5 34.5,166.5C 37.1531,155.372 40.3197,144.372 44,133.5C 45.4194,132.54 46.9194,131.707 48.5,131C 54.4908,130.501 60.4908,130.334 66.5,130.5 Z"/></g>
<g><path style="opacity:1" fill="#bb5f1d" d="M 254.5,127.5 C 254.5,130.167 254.5,132.833 254.5,135.5C 245.347,140.243 236.347,145.243 227.5,150.5C 227.806,147.615 227.473,144.948 226.5,142.5C 235.189,136.486 244.523,131.486 254.5,127.5 Z"/></g>
<g><path style="opacity:1" fill="#e5af0f" d="M 101.5,126.5 C 114.047,129.053 126.38,132.387 138.5,136.5C 139.01,139.388 138.344,141.721 136.5,143.5C 124.929,140.024 113.262,137.024 101.5,134.5C 101.5,131.833 101.5,129.167 101.5,126.5 Z"/></g>
<g><path style="opacity:1" fill="#d89712" d="M 138.5,136.5 C 149.401,140.617 160.067,145.283 170.5,150.5C 170.5,153.167 170.5,155.833 170.5,158.5C 159.256,153.093 147.922,148.093 136.5,143.5C 138.344,141.721 139.01,139.388 138.5,136.5 Z"/></g>
<g><path style="opacity:1" fill="#a11f1b" d="M 347.5,154.5 C 347.5,169.833 347.5,185.167 347.5,200.5C 337.509,201.947 327.509,203.614 317.5,205.5C 317.5,203.167 317.5,200.833 317.5,198.5C 316.5,198.5 315.5,198.5 314.5,198.5C 321.806,195.806 329.473,194.306 337.5,194C 339.329,193.727 340.829,192.893 342,191.5C 342.571,180.117 342.071,168.784 340.5,157.5C 330.325,158.354 320.325,160.02 310.5,162.5C 310.806,159.615 310.473,156.948 309.5,154.5C 319.079,152.152 328.913,150.485 339,149.5C 343.242,149.029 346.075,150.696 347.5,154.5 Z"/></g>
<g><path style="opacity:1" fill="#c5731a" d="M 226.5,142.5 C 227.473,144.948 227.806,147.615 227.5,150.5C 218.873,156.497 210.54,162.997 202.5,170C 210.761,176.949 218.761,184.116 226.5,191.5C 226.813,195.042 226.479,198.375 225.5,201.5C 217.441,193.437 209.107,185.77 200.5,178.5C 200.821,172.974 200.488,167.64 199.5,162.5C 207.913,155.094 216.913,148.427 226.5,142.5 Z"/></g>
<g><path style="opacity:1" fill="#d50d51" d="M 314.5,198.5 C 302.424,201.543 291.091,206.21 280.5,212.5C 272.378,216.732 264.711,221.732 257.5,227.5C 253.852,222.519 249.852,217.853 245.5,213.5C 242.176,208.863 238.843,204.196 235.5,199.5C 244.17,192.167 253.503,185.834 263.5,180.5C 278.223,172.146 293.89,166.146 310.5,162.5C 320.325,160.02 330.325,158.354 340.5,157.5C 342.071,168.784 342.571,180.117 342,191.5C 340.829,192.893 339.329,193.727 337.5,194C 329.473,194.306 321.806,195.806 314.5,198.5 Z"/></g>
<g><path style="opacity:1" fill="#cd8117" d="M 170.5,150.5 C 178.889,155.112 187.056,160.112 195,165.5C 196.271,164.117 197.771,163.117 199.5,162.5C 200.488,167.64 200.821,172.974 200.5,178.5C 190.492,171.83 180.492,165.164 170.5,158.5C 170.5,155.833 170.5,153.167 170.5,150.5 Z"/></g>
<g><path style="opacity:1" fill="#ae431d" d="M 309.5,154.5 C 310.473,156.948 310.806,159.615 310.5,162.5C 293.89,166.146 278.223,172.146 263.5,180.5C 263.5,177.5 263.5,174.5 263.5,171.5C 277.729,163.088 293.062,157.421 309.5,154.5 Z"/></g>
<g><path style="opacity:1" fill="#804235" d="M 347.5,154.5 C 349.419,169.297 349.919,184.297 349,199.5C 348.617,200.056 348.117,200.389 347.5,200.5C 347.5,185.167 347.5,169.833 347.5,154.5 Z"/></g>
<g><path style="opacity:1" fill="#eec50a" d="M 66.5,166.5 C 81.4714,167.661 96.1381,170.328 110.5,174.5C 110.5,176.833 110.5,179.167 110.5,181.5C 94.1824,178.088 77.8491,175.754 61.5,174.5C 63.1667,174.5 64.8333,174.5 66.5,174.5C 66.5,171.833 66.5,169.167 66.5,166.5 Z"/></g>
<g><path style="opacity:1" fill="#dea610" d="M 110.5,174.5 C 125.884,178.739 140.551,184.739 154.5,192.5C 154.806,195.385 154.473,198.052 153.5,200.5C 139.665,192.787 125.332,186.454 110.5,181.5C 110.5,179.167 110.5,176.833 110.5,174.5 Z"/></g>
<g><path style="opacity:1" fill="#bc601c" d="M 263.5,171.5 C 263.5,174.5 263.5,177.5 263.5,180.5C 253.503,185.834 244.17,192.167 235.5,199.5C 238.843,204.196 242.176,208.863 245.5,213.5C 245.813,217.042 245.479,220.375 244.5,223.5C 238.167,216.167 231.833,208.833 225.5,201.5C 226.479,198.375 226.813,195.042 226.5,191.5C 228.068,192.473 229.735,192.64 231.5,192C 241.375,183.898 252.042,177.065 263.5,171.5 Z"/></g>
<g><path style="opacity:1" fill="#ac3b1d" d="M 314.5,198.5 C 315.5,198.5 316.5,198.5 317.5,198.5C 317.5,200.833 317.5,203.167 317.5,205.5C 305.089,209.368 293.089,214.368 281.5,220.5C 281.806,217.615 281.473,214.948 280.5,212.5C 291.091,206.21 302.424,201.543 314.5,198.5 Z"/></g>
<g><path style="opacity:1" fill="#eac613" d="M 64.5,210.5 C 64.5,212.833 64.5,215.167 64.5,217.5C 63.5,217.5 62.5,217.5 61.5,217.5C 56.4932,217.751 51.4932,218.084 46.5,218.5C 46.5,216.167 46.5,213.833 46.5,211.5C 44.5,211.5 42.5,211.5 40.5,211.5C 48.3397,209.732 56.3397,209.398 64.5,210.5 Z"/></g>
<g><path style="opacity:1" fill="#f9e408" d="M 40.5,211.5 C 42.5,211.5 44.5,211.5 46.5,211.5C 46.5,213.833 46.5,216.167 46.5,218.5C 43.054,218.889 39.7206,219.722 36.5,221C 38.9386,228.683 40.9386,236.517 42.5,244.5C 42.8205,249.695 42.4872,254.695 41.5,259.5C 40.6851,258.571 39.8518,257.571 39,256.5C 35.1589,243.646 31.3256,230.812 27.5,218C 27.3536,215.966 28.0203,214.299 29.5,213C 33.0257,211.663 36.6924,211.163 40.5,211.5 Z"/></g>
<g><path style="opacity:1" fill="#e1a910" d="M 64.5,210.5 C 71.8892,211.127 79.2225,212.127 86.5,213.5C 87.0102,216.388 86.3435,218.721 84.5,220.5C 76.6497,219.853 68.983,218.853 61.5,217.5C 62.5,217.5 63.5,217.5 64.5,217.5C 64.5,215.167 64.5,212.833 64.5,210.5 Z"/></g>
<g><path style="opacity:1" fill="#cf8a15" d="M 154.5,192.5 C 167.655,199.993 179.655,208.993 190.5,219.5C 190.5,222.833 190.5,226.167 190.5,229.5C 179.003,218.658 166.669,208.991 153.5,200.5C 154.473,198.052 154.806,195.385 154.5,192.5 Z"/></g>
<g><path style="opacity:1" fill="#d50f51" d="M 61.5,217.5 C 68.983,218.853 76.6497,219.853 84.5,220.5C 91.6426,222.788 98.9759,224.788 106.5,226.5C 112.026,229.094 117.692,231.427 123.5,233.5C 133.618,239.402 143.284,246.069 152.5,253.5C 156.797,258.298 161.297,262.965 166,267.5C 168.34,271.555 169.007,275.889 168,280.5C 166.131,288.603 163.964,296.603 161.5,304.5C 160.303,308.625 158.803,312.625 157,316.5C 150.035,304.197 141.535,293.03 131.5,283C 130.906,282.536 130.239,282.369 129.5,282.5C 123.418,276.285 116.418,271.285 108.5,267.5C 101.488,263.718 94.1551,260.718 86.5,258.5C 79.8991,256.85 73.2324,255.517 66.5,254.5C 55.7012,257.485 47.7012,254.152 42.5,244.5C 40.9386,236.517 38.9386,228.683 36.5,221C 39.7206,219.722 43.054,218.889 46.5,218.5C 51.4932,218.084 56.4932,217.751 61.5,217.5 Z"/></g>
<g><path style="opacity:1" fill="#cf8716" d="M 86.5,213.5 C 94.0159,214.895 101.349,216.895 108.5,219.5C 109.01,222.388 108.344,224.721 106.5,226.5C 98.9759,224.788 91.6426,222.788 84.5,220.5C 86.3435,218.721 87.0102,216.388 86.5,213.5 Z"/></g>
<g><path style="opacity:1" fill="#b5511d" d="M 280.5,212.5 C 281.473,214.948 281.806,217.615 281.5,220.5C 274.898,225.095 268.565,230.095 262.5,235.5C 266.179,242.194 269.846,248.86 273.5,255.5C 272.833,259.833 272.167,264.167 271.5,268.5C 264.261,252.34 255.261,237.34 244.5,223.5C 245.479,220.375 245.813,217.042 245.5,213.5C 249.852,217.853 253.852,222.519 257.5,227.5C 264.711,221.732 272.378,216.732 280.5,212.5 Z"/></g>
<g><path style="opacity:1" fill="#c26c1b" d="M 108.5,219.5 C 114.136,221.322 119.469,223.655 124.5,226.5C 124.802,229.059 124.468,231.393 123.5,233.5C 117.692,231.427 112.026,229.094 106.5,226.5C 108.344,224.721 109.01,222.388 108.5,219.5 Z"/></g>
<g><path style="opacity:1" fill="#b1481d" d="M 124.5,226.5 C 135.574,231.261 145.574,237.594 154.5,245.5C 153.833,248.167 153.167,250.833 152.5,253.5C 143.284,246.069 133.618,239.402 123.5,233.5C 124.468,231.393 124.802,229.059 124.5,226.5 Z"/></g>
<g><path style="opacity:1" fill="#a4261c" d="M 310.5,297.5 C 309.833,293.833 309.167,290.167 308.5,286.5C 317.516,275.469 324.183,263.136 328.5,249.5C 322.065,251.22 315.731,253.22 309.5,255.5C 309.5,252.833 309.5,250.167 309.5,247.5C 314.319,244.277 319.652,242.111 325.5,241C 330.42,239.75 335.42,239.25 340.5,239.5C 340.272,247.688 338.105,255.354 334,262.5C 327.643,275.23 319.81,286.897 310.5,297.5 Z"/></g>
<g><path style="opacity:1" fill="#d40d51" d="M 308.5,286.5 C 303.893,292.776 298.559,298.443 292.5,303.5C 289.215,295.026 286.548,286.359 284.5,277.5C 284.56,272.929 286.56,269.429 290.5,267C 296.897,263.141 303.23,259.308 309.5,255.5C 315.731,253.22 322.065,251.22 328.5,249.5C 324.183,263.136 317.516,275.469 308.5,286.5 Z"/></g>
<g><path style="opacity:1" fill="#c4731a" d="M 190.5,219.5 C 205.079,231.648 217.079,245.981 226.5,262.5C 226.5,267.833 226.5,273.167 226.5,278.5C 214.593,297.792 209.093,318.792 210,341.5C 210.308,342.308 210.808,342.975 211.5,343.5C 212.417,342.873 213.417,342.539 214.5,342.5C 214.5,344.833 214.5,347.167 214.5,349.5C 211.703,350.241 208.87,350.907 206,351.5C 204.188,351.507 202.688,350.84 201.5,349.5C 199.746,322.509 205.58,297.176 219,273.5C 219.667,271.167 219.667,268.833 219,266.5C 210.816,253.15 201.316,240.816 190.5,229.5C 190.5,226.167 190.5,222.833 190.5,219.5 Z"/></g>
<g><path style="opacity:1" fill="#f2cf0b" d="M 42.5,244.5 C 47.7012,254.152 55.7012,257.485 66.5,254.5C 66.5,257.167 66.5,259.833 66.5,262.5C 59.1591,262.666 51.8258,262.5 44.5,262C 43.0577,261.623 42.0577,260.79 41.5,259.5C 42.4872,254.695 42.8205,249.695 42.5,244.5 Z"/></g>
<g><path style="opacity:1" fill="#a4251c" d="M 154.5,245.5 C 162.461,251.627 169.627,258.627 176,266.5C 176.667,272.167 176.667,277.833 176,283.5C 170.486,303.573 166.319,323.906 163.5,344.5C 162.833,331.167 162.167,317.833 161.5,304.5C 163.964,296.603 166.131,288.603 168,280.5C 169.007,275.889 168.34,271.555 166,267.5C 161.297,262.965 156.797,258.298 152.5,253.5C 153.167,250.833 153.833,248.167 154.5,245.5 Z"/></g>
<g><path style="opacity:1" fill="#dea70f" d="M 66.5,254.5 C 73.2324,255.517 79.8991,256.85 86.5,258.5C 86.8064,261.385 86.4731,264.052 85.5,266.5C 79.0016,265.402 72.6683,264.068 66.5,262.5C 66.5,259.833 66.5,257.167 66.5,254.5 Z"/></g>
<g><path style="opacity:1" fill="#ae411d" d="M 309.5,247.5 C 309.5,250.167 309.5,252.833 309.5,255.5C 303.23,259.308 296.897,263.141 290.5,267C 286.56,269.429 284.56,272.929 284.5,277.5C 286.548,286.359 289.215,295.026 292.5,303.5C 298.559,298.443 303.893,292.776 308.5,286.5C 309.167,290.167 309.833,293.833 310.5,297.5C 297.183,312.648 281.516,324.648 263.5,333.5C 263.806,330.615 263.473,327.948 262.5,325.5C 267.768,321.524 273.434,318.024 279.5,315C 282.59,312.984 284.257,310.151 284.5,306.5C 281.354,293.396 277.021,280.729 271.5,268.5C 272.167,264.167 272.833,259.833 273.5,255.5C 274.759,259.025 276.759,262.025 279.5,264.5C 289.021,257.977 299.021,252.31 309.5,247.5 Z"/></g>
<g><path style="opacity:1" fill="#cf8913" d="M 86.5,258.5 C 94.1551,260.718 101.488,263.718 108.5,267.5C 108.5,270.5 108.5,273.5 108.5,276.5C 100.927,272.76 93.2599,269.427 85.5,266.5C 86.4731,264.052 86.8064,261.385 86.5,258.5 Z"/></g>
<g><path style="opacity:1" fill="#bf671c" d="M 108.5,267.5 C 116.418,271.285 123.418,276.285 129.5,282.5C 129.81,285.713 129.477,288.713 128.5,291.5C 126.908,290.398 126.075,291.065 126,293.5C 124.174,302.767 122.674,312.101 121.5,321.5C 121.594,323.923 122.094,326.256 123,328.5C 126.286,330.974 129.786,332.974 133.5,334.5C 133.5,336.833 133.5,339.167 133.5,341.5C 127.551,340.573 121.885,338.739 116.5,336C 112.695,331.909 111.528,327.076 113,321.5C 114.448,310.596 116.281,299.762 118.5,289C 117.255,283.246 113.921,279.079 108.5,276.5C 108.5,273.5 108.5,270.5 108.5,267.5 Z"/></g>
<g><path style="opacity:1" fill="#d41251" d="M 226.5,278.5 C 228.64,280.7 230.14,283.367 231,286.5C 236.064,301.859 241.231,317.193 246.5,332.5C 235.807,336.066 225.14,339.4 214.5,342.5C 213.417,342.539 212.417,342.873 211.5,343.5C 210.808,342.975 210.308,342.308 210,341.5C 209.093,318.792 214.593,297.792 226.5,278.5 Z"/></g>
<g><path style="opacity:1" fill="#bc5f1e" d="M 226.5,262.5 C 239.786,283.418 248.953,306.085 254,330.5C 256.614,328.444 259.447,326.777 262.5,325.5C 263.473,327.948 263.806,330.615 263.5,333.5C 248.172,341.609 231.839,346.942 214.5,349.5C 214.5,347.167 214.5,344.833 214.5,342.5C 225.14,339.4 235.807,336.066 246.5,332.5C 241.231,317.193 236.064,301.859 231,286.5C 230.14,283.367 228.64,280.7 226.5,278.5C 226.5,273.167 226.5,267.833 226.5,262.5 Z"/></g>
<g><path style="opacity:1" fill="#d41051" d="M 128.5,291.5 C 141.689,305.534 151.022,321.867 156.5,340.5C 156.167,340.833 155.833,341.167 155.5,341.5C 148.154,339.162 140.82,336.829 133.5,334.5C 129.786,332.974 126.286,330.974 123,328.5C 122.094,326.256 121.594,323.923 121.5,321.5C 122.674,312.101 124.174,302.767 126,293.5C 126.075,291.065 126.908,290.398 128.5,291.5 Z"/></g>
<g><path style="opacity:1" fill="#ac3b1d" d="M 129.5,282.5 C 130.239,282.369 130.906,282.536 131.5,283C 141.535,293.03 150.035,304.197 157,316.5C 158.803,312.625 160.303,308.625 161.5,304.5C 162.167,317.833 162.833,331.167 163.5,344.5C 162.578,348.083 160.244,349.75 156.5,349.5C 148.373,347.893 140.707,345.226 133.5,341.5C 133.5,339.167 133.5,336.833 133.5,334.5C 140.82,336.829 148.154,339.162 155.5,341.5C 155.833,341.167 156.167,340.833 156.5,340.5C 151.022,321.867 141.689,305.534 128.5,291.5C 129.477,288.713 129.81,285.713 129.5,282.5 Z"/></g>
</svg>
