<svg width="76px" height="76px" viewBox="0 0 76 76" version="1.1" xmlns="http://www.w3.org/2000/svg" xmlns:xlink="http://www.w3.org/1999/xlink"><defs><style>.cls-1{fill:#2f2f2f;}.cls-2{fill:#fff;}.cls-10,.cls-11,.cls-12,.cls-13,.cls-14,.cls-15,.cls-16,.cls-17,.cls-18,.cls-19,.cls-2,.cls-20,.cls-21,.cls-22,.cls-23,.cls-24,.cls-25,.cls-26,.cls-27,.cls-28,.cls-29,.cls-3,.cls-30,.cls-31,.cls-32,.cls-33,.cls-34,.cls-35,.cls-36,.cls-37,.cls-38,.cls-39,.cls-4,.cls-40,.cls-41,.cls-42,.cls-43,.cls-44,.cls-45,.cls-46,.cls-47,.cls-48,.cls-49,.cls-5,.cls-50,.cls-51,.cls-52,.cls-53,.cls-54,.cls-55,.cls-56,.cls-57,.cls-6,.cls-7,.cls-8,.cls-9{fill-rule:evenodd;}.cls-3{opacity:0.89;isolation:isolate;}.cls-4{fill:#383836;}.cls-5{fill:#d5920f;}.cls-6{fill:#c16d1c;}.cls-7{fill:#eabe0a;}.cls-8{fill:#af421d;}.cls-9{fill:#d50f51;}.cls-10{fill:#a4251c;}.cls-11{fill:#f5da0b;}.cls-12{fill:#e8b90e;}.cls-13{fill:#ae421c;}.cls-14{fill:#d51051;}.cls-15{fill:#ae431d;}.cls-16{fill:#e1ab0f;}.cls-17{fill:#bd621c;}.cls-18{fill:#cf8913;}.cls-19{fill:#f2d20b;}.cls-20{fill:#a7301d;}.cls-21{fill:#fbe604;}.cls-22{fill:#ba5f1d;}.cls-23{fill:#d89812;}.cls-24{fill:#c7714e;}.cls-25{fill:#c87a17;}.cls-26{fill:#b44d1d;}.cls-27{fill:#f0c70f;}.cls-28{fill:#bb5f1d;}.cls-29{fill:#e5af0f;}.cls-30{fill:#d89712;}.cls-31{fill:#a11f1b;}.cls-32{fill:#c5731a;}.cls-33{fill:#d50d51;}.cls-34{fill:#cd8117;}.cls-35{fill:#804235;}.cls-36{fill:#eec50a;}.cls-37{fill:#dea610;}.cls-38{fill:#bc601c;}.cls-39{fill:#ac3b1d;}.cls-40{fill:#eac613;}.cls-41{fill:#f9e408;}.cls-42{fill:#e1a910;}.cls-43{fill:#cf8a15;}.cls-44{fill:#cf8716;}.cls-45{fill:#b5511d;}.cls-46{fill:#c26c1b;}.cls-47{fill:#b1481d;}.cls-48{fill:#a4261c;}.cls-49{fill:#d40d51;}.cls-50{fill:#c4731a;}.cls-51{fill:#f2cf0b;}.cls-52{fill:#dea70f;}.cls-53{fill:#ae411d;}.cls-54{fill:#bf671c;}.cls-55{fill:#d41251;}.cls-56{fill:#bc5f1e;}.cls-57{fill:#d41051;}</style></defs><g id="Icarus-Dashboard"><g id="Desktop-HD"><g id="Sidebar"><g id="Sidebar-Header"><g id="Icarus-Logo"><rect id="Logo-Container" class="cls-1" width="76" height="76" rx="5"/><path id="Logo-Inner" class="cls-2" d="M11.4,11.4H64.6V64.6H11.4Z"/><path class="cls-3" d="M35.47,12.7H40.4q14.54,2,20.84,15.21a28,28,0,0,1,2.06,8.67v2.8Q61.74,55.45,46.92,61.73q-14.28,4.74-25.83-4.81a25.82,25.82,0,0,1-8.39-17V36.05q1.73-14.77,15.05-21.28A30.74,30.74,0,0,1,35.47,12.7Z"/><path class="cls-4" d="M36,13.23q15.44-.5,23.51,12.54a24.53,24.53,0,0,1,0,24.42Q51.4,63.33,35.87,62.66,22.07,61,15.7,48.72,9.54,34.26,19.16,21.9A25.42,25.42,0,0,1,36,13.23Z"/><path class="cls-5" d="M35.6,16.44a18.82,18.82,0,0,1,3.2-.14v.94a6.43,6.43,0,0,0-1.87.13H36v-.93Z"/><path class="cls-6" d="M38.8,16.3a12,12,0,0,1,2.8.27,2.25,2.25,0,0,1-.14,1.07,24.51,24.51,0,0,0-4.53-.27,6.43,6.43,0,0,1,1.87-.13Z"/><path class="cls-7" d="M35.6,16.44H36v.93l-2.66.4v-.93h-.4A10.18,10.18,0,0,1,35.6,16.44Z"/><path class="cls-8" d="M41.6,16.57a18.78,18.78,0,0,1,3.32.93,1.85,1.85,0,0,1-.4.94c-1-.31-2-.57-3.06-.8A2.25,2.25,0,0,0,41.6,16.57Z"/><path class="cls-9" d="M36,17.37h.93a24.51,24.51,0,0,1,4.53.27c1,.23,2,.49,3.06.8a3.09,3.09,0,0,1,1.2.6,9.48,9.48,0,0,1-1.06,1.53,11.31,11.31,0,0,1-2.27,1.87,15,15,0,0,1-2.66.8A18.9,18.9,0,0,1,36.54,23a9.16,9.16,0,0,1-2.27-1.2,8.54,8.54,0,0,1-2.66-3.27.47.47,0,0,1,.26-.26c.52-.14,1-.3,1.47-.47Z"/><path class="cls-10" d="M44.92,17.5a7.62,7.62,0,0,1,1.74.6,2.4,2.4,0,0,1-.2,1.94,6.61,6.61,0,0,1-1.67,1.86,3.45,3.45,0,0,0-.13-1.33A9.48,9.48,0,0,0,45.72,19a3.09,3.09,0,0,0-1.2-.6A1.85,1.85,0,0,0,44.92,17.5Z"/><path class="cls-11" d="M32.94,16.84h.4v.93c-.47.17-1,.33-1.47.47a.47.47,0,0,0-.26.26,8.54,8.54,0,0,0,2.66,3.27V23a7,7,0,0,1-3-2.67,3.48,3.48,0,0,1-.74-2.73A6,6,0,0,1,32.94,16.84Z"/><path class="cls-12" d="M25.08,20.44a.78.78,0,0,1,1,.13,19.91,19.91,0,0,0,3.8,5.34A2.19,2.19,0,0,1,29.74,27a15.13,15.13,0,0,1-4.26-5.07.24.24,0,0,0-.26-.13A3.43,3.43,0,0,0,25.08,20.44Z"/><path class="cls-13" d="M44.66,20.57a3.45,3.45,0,0,1,.13,1.33,10.32,10.32,0,0,1-2.26,1.61,2.23,2.23,0,0,0-.14-1.07A11.31,11.31,0,0,0,44.66,20.57Z"/><path class="cls-14" d="M25.22,21.77a.24.24,0,0,1,.26.13A15.13,15.13,0,0,0,29.74,27a13.88,13.88,0,0,0,6.13,2.81,16.84,16.84,0,0,0,7.06-.27A14.32,14.32,0,0,0,47.85,27a15.66,15.66,0,0,0,3.87-4.2.16.16,0,0,1,.26,0,1,1,0,0,0,.4.47c1,1.28,2.1,2.55,3.2,3.8a25.91,25.91,0,0,0-4.26,1,20.86,20.86,0,0,0-4.66,1.74,18.06,18.06,0,0,0-3.73,2,27,27,0,0,0-3.6,2.66,1.53,1.53,0,0,0-.6.41c-1.06-.72-2.14-1.39-3.26-2q-2.09-1-4.26-1.86a39.88,39.88,0,0,0-4.93-1.34,38.19,38.19,0,0,0-4.66-.53h-.8a3,3,0,0,1-1.2-.4,11.59,11.59,0,0,1,1.2-2.54A20.86,20.86,0,0,1,25.22,21.77Z"/><path class="cls-15" d="M52.65,22.17l-.27,1.07a1,1,0,0,1-.4-.47.16.16,0,0,0-.26,0A15.66,15.66,0,0,1,47.85,27v-1.2a29.1,29.1,0,0,0,3.2-4.2A1.13,1.13,0,0,1,52.65,22.17Z"/><path class="cls-16" d="M34.27,21.77A9.16,9.16,0,0,0,36.54,23a1,1,0,0,1-.27.94,4.17,4.17,0,0,1-2-.94Z"/><path class="cls-17" d="M42.39,22.44a2.23,2.23,0,0,1,.14,1.07,16.12,16.12,0,0,1-3.07.8,1.44,1.44,0,0,0,.27-1.07A15,15,0,0,0,42.39,22.44Z"/><path class="cls-18" d="M36.54,23a18.9,18.9,0,0,0,3.19.27,1.44,1.44,0,0,1-.27,1.07,9.21,9.21,0,0,1-3.19-.4A1,1,0,0,0,36.54,23Z"/><path class="cls-19" d="M25.08,20.44a3.43,3.43,0,0,1,.14,1.33,20.86,20.86,0,0,0-4.4,4.4,5,5,0,0,0-.13-1.6A19.55,19.55,0,0,1,25.08,20.44Z"/><path class="cls-20" d="M52.65,22.17a39,39,0,0,1,4.26,5.47q-2.83.54-5.59,1.34V28a25.91,25.91,0,0,1,4.26-1c-1.1-1.25-2.16-2.52-3.2-3.8Z"/><path class="cls-21" d="M20.69,24.57a5,5,0,0,1,.13,1.6,11.59,11.59,0,0,0-1.2,2.54.38.38,0,0,0-.13.4h2.13v1.07a21.37,21.37,0,0,0-2.4.06,3.78,3.78,0,0,0-.59.34c-.49,1.45-.92,2.91-1.27,4.4h4.26v1.07H21a35.9,35.9,0,0,1-4.4.06,1,1,0,0,1-.26-.8A21.09,21.09,0,0,1,20.69,24.57Z"/><path class="cls-22" d="M47.85,25.77V27a14.32,14.32,0,0,1-4.92,2.54,1.7,1.7,0,0,0-.14-.93A17.44,17.44,0,0,0,47.85,25.77Z"/><path class="cls-23" d="M29.88,25.91a14.48,14.48,0,0,0,6,2.93v.94A13.88,13.88,0,0,1,29.74,27,2.19,2.19,0,0,0,29.88,25.91Z"/><path class="cls-24" d="M19.62,28.71a3,3,0,0,0,1.2.4H19.49A.38.38,0,0,1,19.62,28.71Z"/><path class="cls-25" d="M42.79,28.58a1.7,1.7,0,0,1,.14.93,16.84,16.84,0,0,1-7.06.27v-.94A25.46,25.46,0,0,0,42.79,28.58Z"/><path class="cls-26" d="M51.32,28V29q-2.37.86-4.66,1.86V29.78A20.86,20.86,0,0,1,51.32,28Z"/><path class="cls-27" d="M21.62,29.11a38.19,38.19,0,0,1,4.66.53v1.07c-1.55-.22-3.1-.4-4.66-.53Z"/><path class="cls-9" d="M21.62,30.18c1.56.13,3.11.31,4.66.53s3.12.74,4.66,1.2,3,1.28,4.53,2l4,2.67q1.73,1.45,3.33,3.07l2.53,2.93a29.37,29.37,0,0,1,5.33,11.08A1.38,1.38,0,0,1,50,54.79a14.47,14.47,0,0,0-2.26,1.4,4.62,4.62,0,0,0-1.13.67,26.89,26.89,0,0,0-3.66-9.07,20.9,20.9,0,0,0-4.8-5.74,23.75,23.75,0,0,0-4.79-3.6,26,26,0,0,0-5.86-2.4A28.27,28.27,0,0,0,21.62,35H17.36c.35-1.49.78-2.95,1.27-4.4a3.78,3.78,0,0,1,.59-.34A21.37,21.37,0,0,1,21.62,30.18Z"/><path class="cls-28" d="M46.66,29.78v1.06c-1.22.64-2.42,1.3-3.6,2a2.19,2.19,0,0,0-.13-1.06A18.06,18.06,0,0,1,46.66,29.78Z"/><path class="cls-29" d="M26.28,29.64A39.88,39.88,0,0,1,31.21,31a1,1,0,0,1-.27.93c-1.54-.46-3.09-.86-4.66-1.2Z"/><path class="cls-30" d="M31.21,31q2.17.82,4.26,1.86v1.07q-2.25-1.08-4.53-2A1,1,0,0,0,31.21,31Z"/><path class="cls-31" d="M59,33.38v6.13c-1.33.2-2.66.42-4,.67v-.93h-.4a9.91,9.91,0,0,1,3.07-.6,1,1,0,0,0,.6-.34,24.52,24.52,0,0,0-.2-4.53,24.37,24.37,0,0,0-4,.66A2.19,2.19,0,0,0,54,33.38a26.43,26.43,0,0,1,3.93-.67A1,1,0,0,1,59,33.38Z"/><path class="cls-32" d="M42.93,31.78a2.19,2.19,0,0,1,.13,1.06,37.43,37.43,0,0,0-3.33,2.61c1.1.92,2.17,1.88,3.2,2.86a3.48,3.48,0,0,1-.14,1.34q-1.6-1.62-3.33-3.07a8.42,8.42,0,0,0-.13-2.14A27,27,0,0,1,42.93,31.78Z"/><path class="cls-33" d="M54.64,39.25a16.73,16.73,0,0,0-4.52,1.87,18.58,18.58,0,0,0-3.07,2,15,15,0,0,0-1.59-1.87c-.45-.62-.89-1.24-1.33-1.87a20.85,20.85,0,0,1,3.72-2.53,22.26,22.26,0,0,1,6.26-2.41,24.37,24.37,0,0,1,4-.66,24.52,24.52,0,0,1,.2,4.53,1,1,0,0,1-.6.34A9.91,9.91,0,0,0,54.64,39.25Z"/><path class="cls-34" d="M35.47,32.84c1.12.62,2.2,1.29,3.26,2a1.53,1.53,0,0,1,.6-.41,8.42,8.42,0,0,1,.13,2.14l-4-2.67Z"/><path class="cls-15" d="M54,33.38a2.19,2.19,0,0,1,.13,1.06,22.26,22.26,0,0,0-6.26,2.41v-1.2A18.07,18.07,0,0,1,54,33.38Z"/><path class="cls-35" d="M59,33.38a32.38,32.38,0,0,1,.2,6,.3.3,0,0,1-.2.13Z"/><path class="cls-36" d="M21.62,35a28.27,28.27,0,0,1,5.86,1.07V37A48.74,48.74,0,0,0,21,36.05h.66Z"/><path class="cls-37" d="M27.48,36.05a26,26,0,0,1,5.86,2.4,2.19,2.19,0,0,1-.13,1.06A34.32,34.32,0,0,0,27.48,37Z"/><path class="cls-38" d="M47.85,35.65v1.2a20.85,20.85,0,0,0-3.72,2.53c.44.63.88,1.25,1.33,1.87a3.43,3.43,0,0,1-.14,1.33l-2.53-2.93a3.48,3.48,0,0,0,.14-1.34.71.71,0,0,0,.66.07A21.72,21.72,0,0,1,47.85,35.65Z"/><path class="cls-39" d="M54.64,39.25H55v.93a28.2,28.2,0,0,0-4.79,2,2.19,2.19,0,0,0-.13-1.06A16.73,16.73,0,0,1,54.64,39.25Z"/><path class="cls-40" d="M21.36,40.85v.93H21c-.67,0-1.34.08-2,.14V41h-.8A9,9,0,0,1,21.36,40.85Z"/><path class="cls-41" d="M18.16,41H19v.94a5.08,5.08,0,0,0-1.33.33,29.89,29.89,0,0,1,.8,3.13,7.85,7.85,0,0,1-.14,2c-.11-.13-.22-.26-.33-.41l-1.53-5.13a.8.8,0,0,1,.26-.67A3.33,3.33,0,0,1,18.16,41Z"/><path class="cls-42" d="M21.36,40.85a28.46,28.46,0,0,1,2.92.4,1,1,0,0,1-.26.93,29.7,29.7,0,0,1-3.06-.4h.4Z"/><path class="cls-43" d="M33.34,38.45a23.75,23.75,0,0,1,4.79,3.6v1.33a35.2,35.2,0,0,0-4.92-3.87A2.19,2.19,0,0,0,33.34,38.45Z"/><path class="cls-9" d="M21,41.78a29.7,29.7,0,0,0,3.06.4c.95.31,1.93.57,2.93.8.73.35,1.49.66,2.26.94a29.74,29.74,0,0,1,3.86,2.66c.58.64,1.17,1.27,1.8,1.87a2.4,2.4,0,0,1,.27,1.74c-.25,1.08-.54,2.14-.87,3.2a11.41,11.41,0,0,1-.6,1.6,21.08,21.08,0,0,0-3.39-4.47.37.37,0,0,0-.27-.07,9.8,9.8,0,0,0-2.8-2,15.29,15.29,0,0,0-2.93-1.2,26.07,26.07,0,0,0-2.66-.53,2.51,2.51,0,0,1-3.19-1.34,29.89,29.89,0,0,0-.8-3.13A5.08,5.08,0,0,1,19,41.92C19.62,41.86,20.29,41.82,21,41.78Z"/><path class="cls-44" d="M24.28,41.25a17.14,17.14,0,0,1,2.93.8A1,1,0,0,1,27,43c-1-.23-2-.49-2.93-.8A1,1,0,0,0,24.28,41.25Z"/><path class="cls-45" d="M50.12,41.12a2.19,2.19,0,0,1,.13,1.06,28.47,28.47,0,0,0-2.53,2l1.47,2.67-.27,1.74a28.75,28.75,0,0,0-3.6-6,3.43,3.43,0,0,0,.14-1.33,15,15,0,0,1,1.59,1.87A18.58,18.58,0,0,1,50.12,41.12Z"/><path class="cls-46" d="M27.21,42.05a11.26,11.26,0,0,1,2.13.93,1.73,1.73,0,0,1-.13.94c-.77-.28-1.53-.59-2.26-.94A1,1,0,0,0,27.21,42.05Z"/><path class="cls-47" d="M29.34,43a14.77,14.77,0,0,1,4,2.54l-.27,1.06a29.74,29.74,0,0,0-3.86-2.66A1.73,1.73,0,0,0,29.34,43Z"/><path class="cls-48" d="M54.11,52.45c-.09-.48-.18-1-.26-1.46a14.87,14.87,0,0,0,2.66-4.94c-.86.23-1.7.5-2.53.8V45.78a5.69,5.69,0,0,1,2.13-.86,6.39,6.39,0,0,1,2-.2,6.44,6.44,0,0,1-.87,3.07A22,22,0,0,1,54.11,52.45Z"/><path class="cls-49" d="M53.85,51a13.4,13.4,0,0,1-2.13,2.26,24.71,24.71,0,0,1-1.07-3.46,1.57,1.57,0,0,1,.8-1.4L54,46.85c.83-.3,1.67-.57,2.53-.8A14.87,14.87,0,0,1,53.85,51Z"/><path class="cls-50" d="M38.13,42.05a20.9,20.9,0,0,1,4.8,5.74v2.13a14.53,14.53,0,0,0-2.2,8.4.6.6,0,0,0,.2.27.71.71,0,0,1,.4-.13v.93c-.37.1-.75.19-1.13.27a.77.77,0,0,1-.6-.27,17.76,17.76,0,0,1,2.33-10.14,1.64,1.64,0,0,0,0-.93,29.37,29.37,0,0,0-3.8-4.94Z"/><path class="cls-51" d="M18.43,45.38a2.51,2.51,0,0,0,3.19,1.34v1.07c-1,0-1.95,0-2.93-.07a.58.58,0,0,1-.4-.33A7.85,7.85,0,0,0,18.43,45.38Z"/><path class="cls-10" d="M33.34,45.52a16.83,16.83,0,0,1,2.86,2.8,9.58,9.58,0,0,1,0,2.27,62.65,62.65,0,0,0-1.66,8.13l-.27-5.33c.33-1.06.62-2.12.87-3.2a2.4,2.4,0,0,0-.27-1.74c-.63-.6-1.22-1.23-1.8-1.87Z"/><path class="cls-52" d="M21.62,46.72a26.07,26.07,0,0,1,2.66.53,2.12,2.12,0,0,1-.13,1.07c-.86-.15-1.71-.33-2.53-.53Z"/><path class="cls-53" d="M54,45.78v1.07l-2.53,1.54a1.57,1.57,0,0,0-.8,1.4,24.71,24.71,0,0,0,1.07,3.46A13.4,13.4,0,0,0,53.85,51c.08.49.17,1,.26,1.46a19.84,19.84,0,0,1-6.26,4.81,2.23,2.23,0,0,0-.13-1.07A14.47,14.47,0,0,1,50,54.79a1.38,1.38,0,0,0,.67-1.13,28.86,28.86,0,0,0-1.73-5.07l.27-1.74a2.87,2.87,0,0,0,.79,1.2A27.64,27.64,0,0,1,54,45.78Z"/><path class="cls-18" d="M24.28,47.25a15.29,15.29,0,0,1,2.93,1.2v1.2a32.91,32.91,0,0,0-3.06-1.33A2.12,2.12,0,0,0,24.28,47.25Z"/><path class="cls-54" d="M27.21,48.45a9.8,9.8,0,0,1,2.8,2,2.8,2.8,0,0,1-.13,1.2c-.21-.14-.33,0-.34.27-.24,1.24-.44,2.48-.59,3.74a2.71,2.71,0,0,0,.19.93,6.32,6.32,0,0,0,1.4.8v.93a7.3,7.3,0,0,1-2.26-.73,2,2,0,0,1-.47-1.93c.2-1.46.44-2.9.74-4.34a2.32,2.32,0,0,0-1.34-1.67Z"/><path class="cls-55" d="M42.93,49.92a2.51,2.51,0,0,1,.6,1.07q1,3.07,2.06,6.13c-1.42.48-2.84.92-4.26,1.34a.71.71,0,0,0-.4.13.6.6,0,0,1-.2-.27A14.53,14.53,0,0,1,42.93,49.92Z"/><path class="cls-56" d="M42.93,47.79a26.89,26.89,0,0,1,3.66,9.07,4.62,4.62,0,0,1,1.13-.67,2.23,2.23,0,0,1,.13,1.07,20.07,20.07,0,0,1-6.52,2.13v-.93c1.42-.42,2.84-.86,4.26-1.34Q44.54,54.06,43.53,51a2.51,2.51,0,0,0-.6-1.07Z"/><path class="cls-57" d="M29.88,51.65a16.19,16.19,0,0,1,3.73,6.54l-.14.13-2.93-.93a6.32,6.32,0,0,1-1.4-.8,2.71,2.71,0,0,1-.19-.93c.15-1.26.35-2.5.59-3.74C29.55,51.6,29.67,51.51,29.88,51.65Z"/><path class="cls-39" d="M30,50.45a.37.37,0,0,1,.27.07A21.08,21.08,0,0,1,33.67,55a11.41,11.41,0,0,0,.6-1.6l.27,5.33a.81.81,0,0,1-.93.67,11.19,11.19,0,0,1-3.07-1.07v-.93l2.93.93.14-.13a16.19,16.19,0,0,0-3.73-6.54A2.8,2.8,0,0,0,30,50.45Z"/></g></g></g></g></g></svg>